<svg xmlns="http://www.w3.org/2000/svg" xmlns:xlink="http://www.w3.org/1999/xlink" viewBox="0,0,256,256" width="64px" height="64px"><g fill="#333" fill-rule="nonzero" stroke="none" stroke-width="1" stroke-linecap="butt" stroke-linejoin="miter" stroke-miterlimit="10" stroke-dasharray="" stroke-dashoffset="0" font-family="none" font-weight="none" font-size="none" text-anchor="none" style="mix-blend-mode: normal"><g transform="scale(4,4)"><path d="M32,6c-14.359,0 -26,11.641 -26,26c0,14.359 11.641,26 26,26c14.359,0 26,-11.641 26,-26c0,-14.359 -11.641,-26 -26,-26zM32.646,33.909c0,5.427 -3.257,10.015 -9.142,10.015c-5.664,0 -9.44,-4.961 -9.44,-11.44c0,-7.069 3.924,-11.191 9.44,-11.191c3.886,0 6.181,1.333 7.995,4.093l-3.11,1.799c-1.073,-1.706 -2.369,-2.357 -4.589,-2.357c-3.703,0 -5.849,2.324 -5.849,7.657c0,4.589 2.073,7.999 5.553,7.999c3.257,0 4.701,-1.798 4.701,-4.744h-4.331v-3.317h8.773v1.486zM44.27,34.033v6.449h-2.821v-6.449h-6.449v-2.821h6.449v-6.418h2.821v6.418h6.419v2.821z"></path></g></g></svg>